<svg xmlns="http://www.w3.org/2000/svg" width="32" height="32" viewBox="0 0 32 32">
  <defs>
    <linearGradient id="gradient" x1="0%" y1="0%" x2="100%" y2="100%">
      <stop offset="0%" stop-color="#3a86ff" />
      <stop offset="100%" stop-color="#0051cc" />
    </linearGradient>
  </defs>
  <rect width="32" height="32" rx="8" fill="url(#gradient)" />
  <g fill="white" transform="translate(7.5, 10) scale(0.0625)">
    <path d="M136,0 C175.765,0 208,32.235 208,72 C208,111.765 175.765,144 136,144 L80,144 C71.163,144 64,136.837 64,128 L64,16 C64,7.163 71.163,0 80,0 L136,0 Z M136,32 L96,32 L96,112 L136,112 C158.091,112 176,94.091 176,72 C176,49.909 158.091,32 136,32 Z" />
    <path d="M24,0 L56,0 C64.837,0 72,7.163 72,16 L72,128 C72,136.837 64.837,144 56,144 L24,144 C15.163,144 8,136.837 8,128 L8,16 C8,7.163 15.163,0 24,0 Z M40,32 C31.163,32 24,39.163 24,48 L24,96 C24,104.837 31.163,112 40,112 C48.837,112 56,104.837 56,96 L56,48 C56,39.163 48.837,32 40,32 Z" />
    <path d="M256,20 C256,8.954 247.046,0 236,0 L180,0 C168.954,0 160,8.954 160,20 L160,124 C160,135.046 168.954,144 180,144 L236,144 C247.046,144 256,135.046 256,124 L256,20 Z M224,32 L224,112 L192,112 L192,32 L224,32 Z" />
  </g>
</svg>
